<?xml version="1.0" encoding="utf-8"?>
<!-- Generator: Adobe Illustrator 27.8.1, SVG Export Plug-In . SVG Version: 6.00 Build 0)  -->
<svg version="1.1" id="Layer_1" xmlns="http://www.w3.org/2000/svg" xmlns:xlink="http://www.w3.org/1999/xlink" x="0px" y="0px"
	 viewBox="0 0 48 48" style="enable-background:new 0 0 48 48;" xml:space="preserve">
<style type="text/css">
	.st0{fill:#FFFFFF;stroke:#FFFFFF;stroke-miterlimit:10;}
</style>
<path class="st0" d="M5,39v-3.4h4V11.9c0-0.8,0.3-1.5,0.9-2c0.6-0.6,1.2-0.9,2-0.9H41v2.3H11.9c-0.2,0-0.3,0.1-0.4,0.2
	s-0.2,0.3-0.2,0.4v23.7h11.5V39C22.8,39,5,39,5,39z M28.2,39c-0.4,0-0.8-0.1-1-0.4c-0.3-0.3-0.4-0.6-0.4-1V16.4c0-0.4,0.1-0.8,0.4-1
	c0.3-0.3,0.6-0.4,1-0.4h13.3c0.4,0,0.8,0.1,1,0.4c0.3,0.3,0.4,0.6,0.4,1v21.2c0,0.4-0.1,0.8-0.4,1c-0.3,0.3-0.6,0.4-1,0.4
	C41.6,39,28.2,39,28.2,39z M29.1,35.6h11.7V17.2H29.1V35.6z M29.1,35.6h11.7H29.1z"/>
</svg>
