<?xml version="1.0" encoding="utf-8"?>
<!-- Generator: Adobe Illustrator 27.8.1, SVG Export Plug-In . SVG Version: 6.00 Build 0)  -->
<svg version="1.1" id="Layer_1" xmlns="http://www.w3.org/2000/svg" xmlns:xlink="http://www.w3.org/1999/xlink" x="0px" y="0px"
	 viewBox="0 0 48 48" style="enable-background:new 0 0 48 48;" xml:space="preserve">
<style type="text/css">
	.st0{fill:#FFFFFF;}
</style>
<path class="st0" d="M24,41.2L4.6,17.9l5.7-11.4h27.4l5.7,11.4L24,41.2z M17.8,16.9h12.4l-4-8.1h-4.3L17.8,16.9z M22.9,36.3V19.1
	H8.6L22.9,36.3z M25.1,36.3l14.3-17.2H25.1C25.1,19.1,25.1,36.3,25.1,36.3z M32.7,16.9h7.5l-4.1-8.1h-7.5
	C28.7,8.8,32.7,16.9,32.7,16.9z M7.8,16.9h7.5l4-8.1h-7.5C11.8,8.8,7.8,16.9,7.8,16.9z"/>
</svg>
