<?xml version="1.0" encoding="utf-8"?>
<!-- Generator: Adobe Illustrator 27.8.1, SVG Export Plug-In . SVG Version: 6.00 Build 0)  -->
<svg version="1.1" id="Layer_1" xmlns="http://www.w3.org/2000/svg" xmlns:xlink="http://www.w3.org/1999/xlink" x="0px" y="0px"
	 viewBox="0 0 48 48" style="enable-background:new 0 0 48 48;" xml:space="preserve">
<style type="text/css">
	.st0{fill:#FFFFFF;}
</style>
<path class="st0" d="M7.3,33.7v4.4c0,0.2,0.1,0.3,0.2,0.4c0.1,0.1,0.3,0.2,0.4,0.2h32.2c0.2,0,0.3-0.1,0.4-0.2
	c0.1-0.1,0.2-0.3,0.2-0.4v-4.4C40.7,33.7,7.3,33.7,7.3,33.7z M7.9,13h6.9c-0.2-0.3-0.3-0.7-0.4-1.1c-0.1-0.4-0.2-0.8-0.2-1.2
	c0-1.3,0.5-2.4,1.4-3.4c0.9-0.9,2-1.4,3.3-1.4c0.9,0,1.6,0.2,2.4,0.7c0.7,0.4,1.3,1,1.7,1.7l1,1.5l1-1.5c0.5-0.7,1-1.2,1.7-1.7
	C27.4,6.3,28.2,6,29,6c1.3,0,2.5,0.5,3.4,1.4c0.9,0.9,1.4,2,1.4,3.4c0,0.3-0.1,0.7-0.2,1.1c-0.1,0.4-0.2,0.8-0.4,1.2h6.9
	c0.8,0,1.5,0.3,2,0.9c0.6,0.6,0.9,1.2,0.9,2v22.2c0,0.8-0.3,1.5-0.9,2s-1.2,0.9-2,0.9H7.9c-0.8,0-1.5-0.3-2-0.9S5,38.9,5,38.1V15.9
	c0-0.8,0.3-1.5,0.9-2C6.4,13.3,7.1,13,7.9,13z M7.3,29h33.5V15.9c0-0.2-0.1-0.3-0.2-0.4c-0.1-0.1-0.3-0.2-0.4-0.2H27.5l4.7,6.5
	l-1.8,1.4L24,14.3l-6.4,8.9l-1.8-1.4l4.7-6.5H7.9c-0.2,0-0.3,0.1-0.4,0.2c-0.1,0.1-0.2,0.3-0.2,0.4C7.3,15.9,7.3,29,7.3,29z
	 M18.9,13.3c0.7,0,1.3-0.2,1.8-0.7c0.5-0.5,0.7-1.1,0.7-1.8c0-0.7-0.2-1.3-0.7-1.8c-0.5-0.5-1.1-0.7-1.8-0.7c-0.7,0-1.3,0.2-1.8,0.7
	c-0.5,0.5-0.7,1.1-0.7,1.8c0,0.7,0.2,1.3,0.7,1.8C17.6,13,18.2,13.3,18.9,13.3z M29,13.3c0.7,0,1.3-0.2,1.8-0.7
	c0.5-0.5,0.7-1.1,0.7-1.8c0-0.7-0.2-1.3-0.7-1.8c-0.5-0.5-1.1-0.7-1.8-0.7c-0.7,0-1.2,0.2-1.7,0.7c-0.5,0.5-0.7,1.1-0.7,1.8
	c0,0.7,0.2,1.3,0.7,1.8C27.8,13,28.3,13.3,29,13.3z"/>
</svg>
