<?xml version="1.0" encoding="utf-8"?>
<!-- Generator: Adobe Illustrator 27.8.1, SVG Export Plug-In . SVG Version: 6.00 Build 0)  -->
<svg version="1.1" id="Layer_1" xmlns="http://www.w3.org/2000/svg" xmlns:xlink="http://www.w3.org/1999/xlink" x="0px" y="0px"
	 viewBox="0 0 48 48" style="enable-background:new 0 0 48 48;" xml:space="preserve">
<style type="text/css">
	.st0{fill:#FFFFFF;}
</style>
<path class="st0" d="M14.1,30.8c1.2,0,2.2-0.3,3.1-1c0.9-0.7,1.6-1.6,2-2.8l0.7-2.1c0.7-1.9,0.5-3.7-0.4-5.3c-0.9-1.6-2.2-2.4-4-2.4
	H7.7l1,8.8c0.2,1.4,0.8,2.5,1.8,3.4C11.5,30.3,12.7,30.8,14.1,30.8z M33.9,30.8c1.4,0,2.6-0.5,3.6-1.4c1-0.9,1.6-2.1,1.8-3.4l1-8.7
	h-7.8c-1.7,0-3.1,0.8-4,2.4c-0.9,1.6-1,3.4-0.4,5.3l0.7,2.1c0.4,1.1,1.1,2.1,2,2.8S32.8,30.8,33.9,30.8z M14.1,33
	c-1.9,0-3.6-0.6-5.1-1.9c-1.4-1.3-2.3-2.9-2.5-4.9l-1.1-9H3.7V15h11.9c1.2,0,2.4,0.3,3.5,1c1.1,0.7,2,1.7,2.8,2.9h4.4
	c0.8-1.3,1.7-2.2,2.8-2.9c1.1-0.7,2.3-1,3.5-1h11.8v2.3h-1.8l-1.1,9c-0.2,2-1.1,3.6-2.5,4.9c-1.4,1.3-3.1,1.9-5.1,1.9
	c-1.6,0-3.1-0.5-4.4-1.4c-1.3-1-2.3-2.2-2.9-3.9l-0.7-2c-0.1-0.3-0.2-0.7-0.3-1c-0.1-0.4-0.2-0.9-0.2-1.4h-2.8
	c-0.1,0.5-0.1,1-0.2,1.3c-0.1,0.4-0.2,0.7-0.3,1l-0.7,2c-0.6,1.6-1.5,2.9-2.9,3.9C17.2,32.6,15.7,33,14.1,33z"/>
</svg>
