<?xml version="1.0" encoding="utf-8"?>
<!-- Generator: Adobe Illustrator 27.8.1, SVG Export Plug-In . SVG Version: 6.00 Build 0)  -->
<svg version="1.1" id="Layer_1" xmlns="http://www.w3.org/2000/svg" xmlns:xlink="http://www.w3.org/1999/xlink" x="0px" y="0px"
	 viewBox="0 0 48 48" style="enable-background:new 0 0 48 48;" xml:space="preserve">
<style type="text/css">
	.st0{fill:#FFFFFF;}
</style>
<path class="st0" d="M24.1,44.4v-2.3h14c0.2,0,0.3-0.1,0.4-0.2c0.1-0.1,0.2-0.3,0.2-0.4v-2.3h-6.6V25.9h6.6v-3.9
	c0-4.1-1.4-7.6-4.3-10.5c-2.9-2.9-6.3-4.4-10.4-4.4c-4.1,0-7.5,1.5-10.5,4.4c-2.9,2.9-4.4,6.4-4.4,10.5v3.9h6.6v13.3h-6
	c-0.8,0-1.5-0.3-2-0.9c-0.6-0.6-0.9-1.2-0.9-2V22.1c0-2.4,0.4-4.6,1.3-6.6c0.9-2.1,2.1-3.9,3.7-5.5c1.5-1.6,3.4-2.8,5.4-3.7
	C19.5,5.4,21.7,5,24.1,5c2.4,0,4.6,0.4,6.6,1.3s3.9,2.1,5.4,3.7c1.5,1.6,2.7,3.4,3.6,5.5c0.9,2.1,1.3,4.3,1.3,6.6v19.4
	c0,0.8-0.3,1.5-0.9,2c-0.6,0.6-1.2,0.9-2,0.9C38.1,44.4,24.1,44.4,24.1,44.4z M9.9,37h3.7v-8.7H9.3v8.1c0,0.2,0.1,0.3,0.2,0.4
	C9.6,36.9,9.7,37,9.9,37z M34.4,37h4.4v-8.7h-4.4V37z M9.9,28.2H9.3h4.4H9.9z M34.4,28.2h4.4H34.4z"/>
</svg>
