<?xml version="1.0" encoding="utf-8"?>
<!-- Generator: Adobe Illustrator 27.8.1, SVG Export Plug-In . SVG Version: 6.00 Build 0)  -->
<svg version="1.1" id="Layer_1" xmlns="http://www.w3.org/2000/svg" xmlns:xlink="http://www.w3.org/1999/xlink" x="0px" y="0px"
	 viewBox="0 0 48 48" style="enable-background:new 0 0 48 48;" xml:space="preserve">
<style type="text/css">
	.st0{fill:#FFFFFF;}
</style>
<path class="st0" d="M24.1,42.6c-4.1-4.1-7.3-7.4-9.8-10c-2.5-2.6-4.4-4.8-5.8-6.6c-1.4-1.8-2.3-3.4-2.8-4.7C5.2,19.9,5,18.5,5,17
	c0-2.9,1-5.4,3.1-7.4c2-2,4.5-3.1,7.4-3.1c1.4,0,2.7,0.2,4,0.7C20.8,7.7,22,8.4,23,9.4l-3.2,11.1h6.1l-2,18.2l6.4-21.2h-6.1l3.3-9.8
	C28.2,7.3,29,7,29.8,6.8c0.8-0.2,1.7-0.3,2.6-0.3c2.9,0,5.4,1,7.4,3.1c2,2,3.1,4.5,3.1,7.4c0,1.5-0.2,2.9-0.7,4.2
	c-0.5,1.3-1.4,2.9-2.7,4.7c-1.4,1.8-3.3,4-5.8,6.6C31.3,35.2,28.1,38.5,24.1,42.6z M21.8,37.2l1.6-14.4h-6.6l3.6-12.6
	c-0.8-0.4-1.6-0.7-2.4-1c-0.8-0.3-1.7-0.4-2.5-0.4c-2.3,0-4.2,0.8-5.8,2.4c-1.6,1.6-2.4,3.5-2.4,5.8c0,1.1,0.2,2.2,0.7,3.4
	c0.4,1.1,1.2,2.5,2.3,4c1.1,1.5,2.6,3.3,4.5,5.3S19,34.2,21.8,37.2z M26.8,36.6c5-5,8.6-8.9,10.7-11.9c2.1-3,3.2-5.6,3.2-7.7
	c0-2.3-0.8-4.2-2.4-5.8c-1.6-1.6-3.5-2.4-5.8-2.4c-0.5,0-1.1,0.1-1.6,0.2c-0.5,0.1-1.1,0.3-1.6,0.4l-1.9,5.9h5.9L26.8,36.6z"/>
</svg>
